HIERARCHY
ROOT Hips
{
	OFFSET -0.001795 -0.223333 0.028219
	CHANNELS 6 Xposition Yposition Zposition Zrotation Yrotation Xrotation 
	JOINT LeftUpLeg
	{
		OFFSET 0.069520 -0.091406 -0.006815
		CHANNELS 3 Zrotation Yrotation Xrotation
		JOINT LeftLeg
		{
			OFFSET 0.034277 -0.375199 -0.004496
			CHANNELS 3 Zrotation Yrotation Xrotation
			JOINT LeftFoot
			{
				OFFSET -0.013596 -0.397961 -0.043693
				CHANNELS 3 Zrotation Yrotation Xrotation
				JOINT LeftToe
				{
					OFFSET 0.026358 -0.055791 0.119288
					CHANNELS 3 Zrotation Yrotation Xrotation
					End Site
					{
						OFFSET 0.000000 0.000000 0.000000
					}
				}
			}
		}
	}
	JOINT RightUpLeg
	{
		OFFSET -0.067670 -0.090522 -0.004320
		CHANNELS 3 Zrotation Yrotation Xrotation
		JOINT RightLeg
		{
			OFFSET -0.038290 -0.382569 -0.008850
			CHANNELS 3 Zrotation Yrotation Xrotation
			JOINT RightFoot
			{
				OFFSET 0.015774 -0.398415 -0.042312
				CHANNELS 3 Zrotation Yrotation Xrotation
				JOINT RightToe
				{
					OFFSET -0.025372 -0.048144 0.123348
					CHANNELS 3 Zrotation Yrotation Xrotation
					End Site
					{
						OFFSET 0.000000 0.000000 0.000000
					}
				}
			}
		}
	}
	JOINT Spine
	{
		OFFSET -0.002533 0.108963 -0.026696
		CHANNELS 3 Zrotation Yrotation Xrotation
		JOINT Spine1
		{
			OFFSET 0.005487 0.135180 0.001092
			CHANNELS 3 Zrotation Yrotation Xrotation
			JOINT Spine2
			{
				OFFSET 0.001457 0.052922 0.025425
				CHANNELS 3 Zrotation Yrotation Xrotation
				JOINT Neck
				{
					OFFSET -0.002778 0.213870 -0.042857
					CHANNELS 3 Zrotation Yrotation Xrotation
					JOINT Head
					{
						OFFSET 0.005152 0.064970 0.051349
						CHANNELS 3 Zrotation Yrotation Xrotation
						End Site
						{
							OFFSET 0.000000 0.000000 0.000000
						}
					}
				}
				JOINT LeftShoulder
				{
					OFFSET 0.078845 0.121749 -0.034090
					CHANNELS 3 Zrotation Yrotation Xrotation
					JOINT LeftArm
					{
						OFFSET 0.090977 0.030469 -0.008868
						CHANNELS 3 Zrotation Yrotation Xrotation
						JOINT LeftForeArm
						{
							OFFSET 0.259612 -0.012772 -0.027456
							CHANNELS 3 Zrotation Yrotation Xrotation
							JOINT LeftHand
							{
								OFFSET 0.249234 0.008986 -0.001171
								CHANNELS 3 Zrotation Yrotation Xrotation
								End Site
								{
									OFFSET 0.000000 0.000000 0.000000
								}
							}
						}
					}
				}
				JOINT RightShoulder
				{
					OFFSET -0.081759 0.118833 -0.038615
					CHANNELS 3 Zrotation Yrotation Xrotation
					JOINT RightArm
					{
						OFFSET -0.096012 0.032551 -0.009143
						CHANNELS 3 Zrotation Yrotation Xrotation
						JOINT RightForeArm
						{
							OFFSET -0.253742 -0.013329 -0.021401
							CHANNELS 3 Zrotation Yrotation Xrotation
							JOINT RightHand
							{
								OFFSET -0.255298 0.007772 -0.005559
								CHANNELS 3 Zrotation Yrotation Xrotation
								End Site
								{
									OFFSET 0.000000 0.000000 0.000000
								}
							}
						}
					}
				}
			}
		}
	}
}
MOTION
Frames: 7
Frame Time: 0.050000
0.131378 0.950263 0.152640 -6.741083 -16.534520 3.579967 0.253704 1.186460 10.198572 2.401269 -0.494121 4.881713 0.452772 -2.279318 -12.558447 0.000000 0.000000 0.000000 3.189590 6.077874 -34.009030 4.841008 2.780457 44.269550 -5.294010 -16.207605 9.353743 0.000000 0.000000 0.000000 8.302159 -1.652861 17.505805 -0.293742 0.050703 -19.759709 -2.655476 -1.269847 25.850426 11.569487 -8.857007 -15.401995 0.000000 0.000000 0.000000 -15.390420 -0.046790 1.623654 -49.060126 12.007893 -12.621893 -77.972725 -73.095346 72.918657 0.000000 0.000000 0.000000 19.786919 -6.601348 -7.928752 46.127030 -21.133959 -13.538367 34.794841 32.132142 9.732150 0.000000 0.000000 0.000000 
0.129038 0.969105 0.163622 -7.238133 -17.749016 5.437114 1.861435 2.011735 16.829647 2.755438 -0.630929 8.685382 -0.617047 -5.905116 -13.730761 0.000000 0.000000 0.000000 4.552787 6.257414 -32.857950 0.572012 1.175250 17.184954 -0.953766 -10.714430 14.953649 0.000000 0.000000 0.000000 9.634321 -1.624487 14.516082 0.852537 -0.276587 -20.369182 -3.649966 -2.887872 26.283513 9.418375 -8.116828 -11.937310 0.000000 0.000000 0.000000 -13.469832 0.557023 1.557960 -45.786190 10.054367 -11.030940 -99.411363 -72.997141 95.428992 0.000000 0.000000 0.000000 18.298828 -8.966905 -9.449162 46.633090 -27.440163 -16.235838 34.023846 29.591617 8.286366 0.000000 0.000000 0.000000 
0.126121 0.974216 0.176362 -6.536845 -18.505737 6.468301 1.959683 2.236713 18.132833 3.087285 -0.602838 19.778891 -1.677518 -7.097662 -9.030102 0.000000 0.000000 0.000000 5.360974 5.770061 -30.141711 1.135500 0.265778 7.100814 1.387732 -8.189990 18.027840 0.000000 0.000000 0.000000 10.447874 -1.434792 11.333660 -0.969446 0.193571 -20.576091 -3.076722 -5.250065 27.167684 7.085950 -7.001735 -8.362164 0.000000 0.000000 0.000000 -12.557143 0.546369 1.924831 -45.145523 9.951292 -10.738045 -108.087095 -73.038452 106.298193 0.000000 0.000000 0.000000 16.983049 -10.623473 -10.604787 46.750751 -32.022167 -18.315905 35.883363 26.767982 7.344457 0.000000 0.000000 0.000000 
0.123314 0.961839 0.188394 -6.493976 -19.362203 6.120493 2.316849 1.877486 15.928544 4.007844 -0.017060 34.514655 -3.360054 -2.955748 12.342584 0.000000 0.000000 0.000000 7.202584 6.180802 -29.771195 2.595069 1.012743 19.439341 -0.802100 -12.083613 18.761345 0.000000 0.000000 0.000000 11.877601 -1.396628 10.207223 -0.720567 0.064424 -19.569955 -3.968120 -5.590108 27.582294 4.655425 -5.216044 -9.268652 0.000000 0.000000 0.000000 -12.266313 1.513003 1.502533 -44.598944 8.903111 -10.316202 -106.134634 -74.526416 106.091390 0.000000 0.000000 0.000000 15.201017 -10.324123 -9.836061 49.303460 -31.472979 -19.602154 36.846959 27.012792 7.568763 0.000000 0.000000 0.000000 
0.121837 0.936836 0.195934 -8.000816 -21.582856 4.641286 3.476271 1.351299 12.454513 6.421231 0.934294 50.952300 -5.844881 -2.827849 22.741445 0.000000 0.000000 0.000000 10.943219 6.763100 -28.060548 3.368469 2.935249 34.755742 -2.438096 -16.667807 29.634747 0.000000 0.000000 0.000000 13.195247 -1.658614 12.783520 -1.609803 0.270563 -20.657139 -1.648300 -3.332090 28.917856 4.207076 -4.697650 -11.852324 0.000000 0.000000 0.000000 -14.622487 -0.210225 2.703531 -44.654905 8.153286 -10.488757 -98.457079 -76.649417 99.046016 0.000000 0.000000 0.000000 17.911984 -10.491987 -10.773629 47.878009 -28.657312 -17.606212 39.529993 30.501474 9.660569 0.000000 0.000000 0.000000 
0.123068 0.911980 0.197141 -9.036398 -24.572615 3.023084 4.911980 0.827602 7.633492 8.894749 1.952764 62.029464 -5.433588 -3.638268 17.650212 0.000000 0.000000 0.000000 14.624672 6.134568 -23.070534 1.153766 5.247663 39.532879 -2.247243 -17.786594 40.226335 0.000000 0.000000 0.000000 12.337569 -1.738646 16.033323 -0.331483 -0.214743 -19.740016 -0.993182 -0.340475 27.871422 4.681916 -4.553503 -15.606985 0.000000 0.000000 0.000000 -16.423288 1.104553 1.961732 -45.971609 7.588846 -10.689331 -80.908426 -78.371443 82.368954 0.000000 0.000000 0.000000 21.589670 -6.566651 -9.690423 47.521849 -21.451459 -14.094170 38.487877 35.343017 11.526001 0.000000 0.000000 0.000000 
0.126995 0.902603 0.193380 -8.449015 -25.912849 2.065889 5.298372 0.166506 -2.972029 12.630400 0.739161 69.603509 -4.696163 -3.865151 12.916977 0.000000 0.000000 0.000000 15.051040 3.385484 -14.527694 -3.138120 4.833001 29.493858 -5.932411 -21.750423 47.876968 0.000000 0.000000 0.000000 10.079074 -1.523068 17.719288 -1.588953 0.095072 -18.854565 2.632351 3.257134 27.157613 4.989727 -4.134237 -17.066167 0.000000 0.000000 0.000000 -18.966917 0.053886 2.241439 -42.878299 6.067332 -9.693779 -72.031748 -78.839780 72.541488 0.000000 0.000000 0.000000 22.479550 -4.355082 -7.889349 49.586386 -14.173021 -11.806495 39.808339 43.693580 15.858810 0.000000 0.000000 0.000000 
